<?xml version="1.0" encoding="UTF-8"?>
<svg xmlns="http://www.w3.org/2000/svg" xmlns:xlink="http://www.w3.org/1999/xlink" width="497pt" height="490pt" viewBox="0 0 497 490" version="1.2">
<g id="surface93261">
<path style="fill:none;stroke-width:5;stroke-linecap:round;stroke-linejoin:round;stroke:rgb(0%,0%,0%);stroke-opacity:1;stroke-miterlimit:10;" d="M 175 125 L 200 125 L 200 100 L 175 100 L 175 125 "/>
<path style="fill:none;stroke-width:5;stroke-linecap:round;stroke-linejoin:round;stroke:rgb(0%,0%,0%);stroke-opacity:1;stroke-miterlimit:10;" d="M 275 100 L 275 125 L 300 125 L 300 100 L 275 100 "/>
<path style="fill:none;stroke-width:5;stroke-linecap:round;stroke-linejoin:round;stroke:rgb(0%,0%,0%);stroke-opacity:1;stroke-miterlimit:10;" d="M 150 75 L 150 225 L 325 225 L 325 75 L 150 75 "/>
<path style="fill:none;stroke-width:5;stroke-linecap:round;stroke-linejoin:round;stroke:rgb(0%,0%,0%);stroke-opacity:1;stroke-miterlimit:10;" d="M 250 125 L 225 150 L 250 150 "/>
<path style="fill:none;stroke-width:5;stroke-linecap:round;stroke-linejoin:round;stroke:rgb(0%,0%,0%);stroke-opacity:1;stroke-miterlimit:10;" d="M 200 175 L 225 200 L 250 200 L 275 175 "/>
<path style="fill:none;stroke-width:5;stroke-linecap:round;stroke-linejoin:round;stroke:rgb(0%,0%,0%);stroke-opacity:1;stroke-miterlimit:10;" d="M 225 225 L 225 275 "/>
<path style="fill:none;stroke-width:5;stroke-linecap:round;stroke-linejoin:round;stroke:rgb(0%,0%,0%);stroke-opacity:1;stroke-miterlimit:10;" d="M 250 225 L 250 275 "/>
<path style="fill:none;stroke-width:5;stroke-linecap:round;stroke-linejoin:round;stroke:rgb(0%,0%,0%);stroke-opacity:1;stroke-miterlimit:10;" d="M 125 275 L 350 275 L 300 475 L 175 475 L 125 275 "/>
<path style="fill:none;stroke-width:5;stroke-linecap:round;stroke-linejoin:round;stroke:rgb(0%,0%,0%);stroke-opacity:1;stroke-miterlimit:10;" d="M 200 175 L 275 175 "/>
<path style="fill:none;stroke-width:5;stroke-linecap:round;stroke-linejoin:round;stroke:rgb(0%,0%,0%);stroke-opacity:1;stroke-miterlimit:10;" d="M 350 275 L 425 275 L 425 175 L 450 175 L 450 300 L 350 300 "/>
<path style="fill:none;stroke-width:5;stroke-linecap:round;stroke-linejoin:round;stroke:rgb(0%,0%,0%);stroke-opacity:1;stroke-miterlimit:10;" d="M 425 175 C 425 175 400 175 400 150 "/>
<path style="fill:none;stroke-width:5;stroke-linecap:round;stroke-linejoin:round;stroke:rgb(0%,0%,0%);stroke-opacity:1;stroke-miterlimit:10;" d="M 400 150 C 400 150 400 175 425 175 "/>
<path style="fill:none;stroke-width:5;stroke-linecap:round;stroke-linejoin:round;stroke:rgb(0%,0%,0%);stroke-opacity:1;stroke-miterlimit:10;" d="M 425 175 C 425 175 425 150 400 150 "/>
<path style="fill:none;stroke-width:5;stroke-linecap:round;stroke-linejoin:round;stroke:rgb(0%,0%,0%);stroke-opacity:1;stroke-miterlimit:10;" d="M 425 175 C 425 175 425 175 425 125 "/>
<path style="fill:none;stroke-width:5;stroke-linecap:round;stroke-linejoin:round;stroke:rgb(0%,0%,0%);stroke-opacity:1;stroke-miterlimit:10;" d="M 425 125 C 425 125 450 125 450 175 "/>
<path style="fill:none;stroke-width:5;stroke-linecap:round;stroke-linejoin:round;stroke:rgb(0%,0%,0%);stroke-opacity:1;stroke-miterlimit:10;" d="M 450 125 C 450 125 425 125 425 175 "/>
<path style="fill:none;stroke-width:5;stroke-linecap:round;stroke-linejoin:round;stroke:rgb(0%,0%,0%);stroke-opacity:1;stroke-miterlimit:10;" d="M 450 125 L 450 175 "/>
<path style="fill:none;stroke-width:5;stroke-linecap:round;stroke-linejoin:round;stroke:rgb(0%,0%,0%);stroke-opacity:1;stroke-miterlimit:10;" d="M 125 275 L 100 275 L 100 475 L 125 475 L 125 300 "/>
<path style="fill:none;stroke-width:5;stroke-linecap:round;stroke-linejoin:round;stroke:rgb(0%,0%,0%);stroke-opacity:1;stroke-miterlimit:10;" d="M 25 50 L 25 150 L 25 100 L 50 100 L 50 50 L 50 150 "/>
<path style="fill:none;stroke-width:5;stroke-linecap:round;stroke-linejoin:round;stroke:rgb(0%,0%,0%);stroke-opacity:1;stroke-miterlimit:10;" d="M 75 100 L 75 150 "/>
<path style="fill:none;stroke-width:5;stroke-linecap:round;stroke-linejoin:round;stroke:rgb(0%,0%,0%);stroke-opacity:1;stroke-miterlimit:10;" d="M 75 50 L 75 75 "/>
<path style="fill:none;stroke-width:5;stroke-linecap:round;stroke-linejoin:round;stroke:rgb(38.82353%,27.058825%,17.254902%);stroke-opacity:1;stroke-miterlimit:10;" d="M 150 75 C 150 75 175 75 175 50 "/>
<path style="fill:none;stroke-width:5;stroke-linecap:round;stroke-linejoin:round;stroke:rgb(38.82353%,27.058825%,17.254902%);stroke-opacity:1;stroke-miterlimit:10;" d="M 150 50 C 150 50 175 50 175 75 "/>
<path style="fill:none;stroke-width:5;stroke-linecap:round;stroke-linejoin:round;stroke:rgb(38.82353%,27.058825%,17.254902%);stroke-opacity:1;stroke-miterlimit:10;" d="M 150 50 C 150 50 150 50 150 75 C 150 75 175 75 175 50 "/>
<path style="fill:none;stroke-width:5;stroke-linecap:round;stroke-linejoin:round;stroke:rgb(38.82353%,27.058825%,17.254902%);stroke-opacity:1;stroke-miterlimit:10;" d="M 150 75 C 150 75 150 50 175 50 "/>
<path style="fill:none;stroke-width:5;stroke-linecap:round;stroke-linejoin:round;stroke:rgb(38.82353%,27.058825%,17.254902%);stroke-opacity:1;stroke-miterlimit:10;" d="M 175 50 C 175 50 175 75 200 75 "/>
<path style="fill:none;stroke-width:5;stroke-linecap:round;stroke-linejoin:round;stroke:rgb(38.82353%,27.058825%,17.254902%);stroke-opacity:1;stroke-miterlimit:10;" d="M 175 75 C 175 75 200 75 200 50 "/>
<path style="fill:none;stroke-width:5;stroke-linecap:round;stroke-linejoin:round;stroke:rgb(38.82353%,27.058825%,17.254902%);stroke-opacity:1;stroke-miterlimit:10;" d="M 175 50 C 175 50 225 50 225 75 "/>
<path style="fill:none;stroke-width:5;stroke-linecap:round;stroke-linejoin:round;stroke:rgb(38.82353%,27.058825%,17.254902%);stroke-opacity:1;stroke-miterlimit:10;" d="M 200 75 C 200 75 225 75 225 50 "/>
<path style="fill:none;stroke-width:5;stroke-linecap:round;stroke-linejoin:round;stroke:rgb(38.82353%,27.058825%,17.254902%);stroke-opacity:1;stroke-miterlimit:10;" d="M 200 50 C 200 50 200 75 225 75 "/>
<path style="fill:none;stroke-width:5;stroke-linecap:round;stroke-linejoin:round;stroke:rgb(38.82353%,27.058825%,17.254902%);stroke-opacity:1;stroke-miterlimit:10;" d="M 200 75 C 200 75 225 75 225 50 "/>
<path style="fill:none;stroke-width:5;stroke-linecap:round;stroke-linejoin:round;stroke:rgb(38.82353%,27.058825%,17.254902%);stroke-opacity:1;stroke-miterlimit:10;" d="M 200 75 C 200 75 200 50 225 50 "/>
<path style="fill:none;stroke-width:5;stroke-linecap:round;stroke-linejoin:round;stroke:rgb(38.82353%,27.058825%,17.254902%);stroke-opacity:1;stroke-miterlimit:10;" d="M 175 75 C 175 75 175 50 200 50 "/>
<path style="fill:none;stroke-width:5;stroke-linecap:round;stroke-linejoin:round;stroke:rgb(38.82353%,27.058825%,17.254902%);stroke-opacity:1;stroke-miterlimit:10;" d="M 225 50 C 225 50 250 50 250 75 "/>
<path style="fill:none;stroke-width:5;stroke-linecap:round;stroke-linejoin:round;stroke:rgb(38.82353%,27.058825%,17.254902%);stroke-opacity:1;stroke-miterlimit:10;" d="M 225 75 C 225 75 250 75 250 50 "/>
<path style="fill:none;stroke-width:5;stroke-linecap:round;stroke-linejoin:round;stroke:rgb(38.82353%,27.058825%,17.254902%);stroke-opacity:1;stroke-miterlimit:10;" d="M 225 75 C 225 75 225 50 250 50 "/>
<path style="fill:none;stroke-width:5;stroke-linecap:round;stroke-linejoin:round;stroke:rgb(38.82353%,27.058825%,17.254902%);stroke-opacity:1;stroke-miterlimit:10;" d="M 250 50 C 250 50 250 75 275 75 "/>
<path style="fill:none;stroke-width:5;stroke-linecap:round;stroke-linejoin:round;stroke:rgb(38.82353%,27.058825%,17.254902%);stroke-opacity:1;stroke-miterlimit:10;" d="M 225 75 C 225 75 225 50 275 50 "/>
<path style="fill:none;stroke-width:5;stroke-linecap:round;stroke-linejoin:round;stroke:rgb(38.82353%,27.058825%,17.254902%);stroke-opacity:1;stroke-miterlimit:10;" d="M 250 75 C 250 75 250 50 275 50 "/>
<path style="fill:none;stroke-width:5;stroke-linecap:round;stroke-linejoin:round;stroke:rgb(38.82353%,27.058825%,17.254902%);stroke-opacity:1;stroke-miterlimit:10;" d="M 250 75 C 250 75 300 75 300 50 "/>
<path style="fill:none;stroke-width:5;stroke-linecap:round;stroke-linejoin:round;stroke:rgb(38.82353%,27.058825%,17.254902%);stroke-opacity:1;stroke-miterlimit:10;" d="M 275 50 C 275 50 275 75 300 75 "/>
<path style="fill:none;stroke-width:5;stroke-linecap:round;stroke-linejoin:round;stroke:rgb(38.82353%,27.058825%,17.254902%);stroke-opacity:1;stroke-miterlimit:10;" d="M 275 75 C 275 75 300 75 300 50 "/>
<path style="fill:none;stroke-width:5;stroke-linecap:round;stroke-linejoin:round;stroke:rgb(38.82353%,27.058825%,17.254902%);stroke-opacity:1;stroke-miterlimit:10;" d="M 275 75 C 275 75 275 50 300 50 "/>
<path style="fill:none;stroke-width:5;stroke-linecap:round;stroke-linejoin:round;stroke:rgb(38.82353%,27.058825%,17.254902%);stroke-opacity:1;stroke-miterlimit:10;" d="M 300 50 C 300 50 325 50 325 75 "/>
<path style="fill:none;stroke-width:5;stroke-linecap:round;stroke-linejoin:round;stroke:rgb(38.82353%,27.058825%,17.254902%);stroke-opacity:1;stroke-miterlimit:10;" d="M 300 75 C 300 75 300 50 325 50 "/>
<path style="fill:none;stroke-width:5;stroke-linecap:round;stroke-linejoin:round;stroke:rgb(38.82353%,27.058825%,17.254902%);stroke-opacity:1;stroke-miterlimit:10;" d="M 300 50 C 300 50 300 75 325 75 "/>
<path style="fill:none;stroke-width:5;stroke-linecap:round;stroke-linejoin:round;stroke:rgb(38.82353%,27.058825%,17.254902%);stroke-opacity:1;stroke-miterlimit:10;" d="M 300 75 L 325 50 "/>
<path style="fill:none;stroke-width:5;stroke-linecap:round;stroke-linejoin:round;stroke:rgb(38.82353%,27.058825%,17.254902%);stroke-opacity:1;stroke-miterlimit:10;" d="M 250 50 L 275 75 "/>
<path style="fill:none;stroke-width:5;stroke-linecap:round;stroke-linejoin:round;stroke:rgb(38.82353%,27.058825%,17.254902%);stroke-opacity:1;stroke-miterlimit:10;" d="M 275 75 C 275 75 250 75 250 75 C 250 75 300 75 300 50 "/>
<path style="fill:none;stroke-width:5;stroke-linecap:round;stroke-linejoin:round;stroke:rgb(38.82353%,27.058825%,17.254902%);stroke-opacity:1;stroke-miterlimit:10;" d="M 250 75 C 250 75 250 50 300 50 "/>
<path style="fill:none;stroke-width:5;stroke-linecap:round;stroke-linejoin:round;stroke:rgb(38.82353%,27.058825%,17.254902%);stroke-opacity:1;stroke-miterlimit:10;" d="M 150 50 L 175 75 "/>
<path style="fill:none;stroke-width:5;stroke-linecap:round;stroke-linejoin:round;stroke:rgb(38.82353%,27.058825%,17.254902%);stroke-opacity:1;stroke-miterlimit:10;" d="M 200 75 C 200 75 200 25 225 25 "/>
<path style="fill:none;stroke-width:5;stroke-linecap:round;stroke-linejoin:round;stroke:rgb(38.82353%,27.058825%,17.254902%);stroke-opacity:1;stroke-miterlimit:10;" d="M 325 50 C 325 50 325 75 325 75 "/>
</g>
</svg>
