<?xml version="1.0" standalone="no"?>
<!DOCTYPE svg PUBLIC "-//W3C//DTD SVG 20010904//EN"
 "http://www.w3.org/TR/2001/REC-SVG-20010904/DTD/svg10.dtd">
<svg version="1.0" xmlns="http://www.w3.org/2000/svg"
 width="700.000000pt" height="700.000000pt" viewBox="0 0 700.000000 700.000000"
 preserveAspectRatio="xMidYMid meet">
<metadata>
Created by potrace 1.14, written by Peter Selinger 2001-2017
</metadata>
<g transform="translate(0.000000,700.000000) scale(0.100000,-0.100000)"
fill="#000000" stroke="none">
<path d="M3389 6996 c-2 -2 -24 -6 -49 -10 -155 -20 -194 -35 -645 -256 -148
-73 -362 -177 -475 -232 -113 -56 -320 -157 -460 -226 -140 -68 -331 -162
-425 -207 -93 -45 -294 -143 -445 -217 -151 -75 -368 -181 -482 -236 -181 -89
-214 -109 -266 -161 -99 -98 -144 -215 -137 -355 6 -124 43 -216 122 -301 38
-41 120 -105 135 -105 4 0 36 -13 70 -29 35 -15 108 -47 163 -71 55 -23 120
-51 145 -63 25 -11 88 -37 140 -59 52 -21 119 -50 148 -64 29 -13 55 -24 58
-24 3 0 24 -9 47 -19 24 -11 92 -41 152 -66 61 -26 114 -51 119 -55 5 -5 9
-193 9 -418 0 -289 4 -434 13 -493 78 -494 479 -891 1122 -1113 163 -56 433
-119 607 -140 22 -3 63 -8 90 -11 109 -13 168 -16 370 -19 116 -2 251 1 300 5
130 12 197 19 220 25 11 2 36 6 55 8 156 18 496 112 655 181 131 56 174 77
275 133 186 103 348 226 477 360 60 63 173 208 173 223 0 5 4 9 9 9 6 0 9
-221 8 -556 l-2 -555 -65 -26 c-163 -65 -281 -190 -342 -363 -25 -70 -32 -224
-14 -300 52 -214 194 -369 401 -436 125 -40 336 -20 437 43 21 13 40 23 43 23
7 0 17 7 74 57 126 109 200 281 196 454 -3 84 -35 202 -72 261 -13 21 -23 40
-23 43 0 8 -42 55 -95 107 -46 45 -167 116 -223 130 l-22 6 0 1244 0 1243 386
165 c212 91 407 180 432 198 65 46 116 106 151 177 40 82 51 135 46 235 -6
133 -49 227 -149 324 -51 49 -74 61 -781 406 -110 54 -317 155 -460 225 -355
174 -673 330 -900 440 -104 51 -302 148 -440 215 -371 182 -413 199 -555 230
-50 11 -313 24 -321 16z"/>
</g>
</svg>
